<?xml version="1.0" encoding="UTF-8" standalone="no"?>
<svg width="95px" height="95px" viewBox="0 0 95 95" version="1.1" xmlns="http://www.w3.org/2000/svg" xmlns:xlink="http://www.w3.org/1999/xlink" xmlns:sketch="http://www.bohemiancoding.com/sketch/ns">
    <!-- Generator: Sketch 3.5.2 (25235) - http://www.bohemiancoding.com/sketch -->
    <title>flaticon1454825544-svg</title>
    <desc>Created with Sketch.</desc>
    <defs></defs>
    <g id="Page-1" stroke="none" stroke-width="1" fill="none" fill-rule="evenodd" sketch:type="MSPage">
        <g id="Desktop-HD" sketch:type="MSArtboardGroup" transform="translate(-133.000000, -2454.000000)" fill="#FFD13E">
            <g id="Group-6" sketch:type="MSLayerGroup" transform="translate(-81.000000, -1.000000)">
                <g id="Rectangle-3-+-flaticon1454825544-svg" transform="translate(39.000000, 2049.000000)" sketch:type="MSShapeGroup">
                    <g id="flaticon1454825544-svg" transform="translate(175.000000, 406.000000)">
                        <path d="M95,15.8343889 C95,7.5145 87.4886667,0 79.1666667,0 L15.8333333,0 C7.51133333,0 0,7.5145 0,15.8343889 L0,79.1656111 C0,87.4855 7.51133333,95 15.8343889,95 L47.5,95 L47.5,59.1111111 L35.8888889,59.1111111 L35.8888889,43.2777778 L47.5,43.2777778 L47.5,37.1091111 C47.5,26.4701667 55.4884444,16.8888889 65.3125,16.8888889 L78.1111111,16.8888889 L78.1111111,32.7222222 L65.3125,32.7222222 C63.9117778,32.7222222 62.2777778,34.4227222 62.2777778,36.9697778 L62.2777778,43.2777778 L78.1111111,43.2777778 L78.1111111,59.1111111 L62.2777778,59.1111111 L62.2777778,95 L79.1666667,95 C87.4886667,95 95,87.4855 95,79.1656111 L95,15.8343889 L95,15.8343889 Z" id="Facebook__x28_alt_x29_"></path>
                    </g>
                </g>
            </g>
        </g>
    </g>
</svg>