<?xml version="1.0" encoding="UTF-8" standalone="no"?>
<svg width="95px" height="95px" viewBox="0 0 95 95" version="1.1" xmlns="http://www.w3.org/2000/svg" xmlns:xlink="http://www.w3.org/1999/xlink" xmlns:sketch="http://www.bohemiancoding.com/sketch/ns">
    <!-- Generator: Sketch 3.5.2 (25235) - http://www.bohemiancoding.com/sketch -->
    <title>flaticon1454826061-svg</title>
    <desc>Created with Sketch.</desc>
    <defs></defs>
    <g id="Page-1" stroke="none" stroke-width="1" fill="none" fill-rule="evenodd" sketch:type="MSPage">
        <g id="Desktop-HD" sketch:type="MSArtboardGroup" transform="translate(-1213.000000, -2454.000000)" fill="#DC3D5E">
            <g id="Group-6" sketch:type="MSLayerGroup" transform="translate(-81.000000, -1.000000)">
                <g id="Rectangle-3-Copy-3-+-flaticon1454826061-svg" transform="translate(1145.000000, 2049.000000)" sketch:type="MSShapeGroup">
                    <g id="flaticon1454826061-svg" transform="translate(149.000000, 406.000000)">
                        <g id="Group">
                            <g id="Shape">
                                <path d="M77.091037,0 L17.7901643,0 C7.96400411,0 0,7.96400411 0,17.7901643 L0,77.091037 C0,86.9171971 7.96400411,94.8812012 17.7901643,94.8812012 L77.091037,94.8812012 C86.9171971,94.8812012 94.8812012,86.9170021 94.8812012,77.091037 L94.8812012,17.7901643 C94.8813963,7.96400411 86.9171971,0 77.091037,0 L77.091037,0 Z M34.2046817,79.3622587 C23.7025975,79.3622587 14.8430185,75.0866735 14.8430185,68.2552567 C14.8430185,61.3229877 22.9256263,54.6279261 33.4279055,54.6337782 L36.7072587,54.6041273 C35.272115,53.2105339 34.1336756,51.4968275 34.1336756,49.3797125 C34.1336756,48.1224743 34.5368891,46.9186858 35.0944045,45.8454004 L33.345,45.9047023 C24.7167762,45.9047023 18.9408932,39.7671561 18.9408932,32.158768 C18.9408932,24.7165811 26.9167967,18.29423 35.396961,18.29423 L54.3138604,18.29423 L50.0679261,21.3541273 L44.0725873,21.3541273 C48.0516632,22.884076 50.1687782,27.5213244 50.1687782,32.2773717 C50.1687782,36.268347 47.9568583,39.7078542 44.8316119,42.1509343 C41.7775667,44.5407598 41.2024949,45.5369918 41.2024949,47.565154 C41.2024949,49.296807 44.4759959,52.2381006 46.1838501,53.4537885 C51.1829569,56.9881006 52.7899589,60.2674538 52.7899589,65.7409754 C52.7895688,72.5723922 46.1776078,79.3622587 34.2046817,79.3622587 L34.2046817,79.3622587 Z M83.0212218,41.6232649 L71.1610472,41.6232649 L71.1610472,53.4656879 L65.2369097,53.4656879 L65.2369097,41.6232649 L53.370883,41.6232649 L53.370883,35.5805236 L65.2369097,35.5805236 L65.2369097,23.7203491 L71.1610472,23.7203491 L71.1610472,35.5805236 L83.0212218,35.5805236 L83.0212218,41.6232649 L83.0212218,41.6232649 Z"></path>
                                <path d="M43.3726694,32.6450821 C42.5305441,26.2523819 37.8991478,21.1169199 33.0305441,20.9686653 C28.1619405,20.8262628 24.8944867,25.7186653 25.7366119,32.1230698 C26.5787372,38.5216222 31.2101335,43.8291376 36.0845893,43.971345 C40.9471458,44.1197947 44.2206468,39.0496817 43.3726694,32.6450821 L43.3726694,32.6450821 Z"></path>
                                <path d="M40.1407187,57.160154 C38.7055749,56.6976386 37.1223717,56.4188809 35.432269,56.4011294 C28.1738398,56.324076 21.6744353,60.8249692 21.6744353,66.2391889 C21.6744353,71.7659651 26.9166016,76.3558111 34.1750308,76.3558111 C44.3806057,76.3558111 47.9328645,72.0386756 47.9328645,66.5237988 C47.9328645,65.8595791 47.8439117,65.2072587 47.7015092,64.572885 C46.9069815,61.4415914 44.0782444,59.8938912 40.1407187,57.160154 L40.1407187,57.160154 Z"></path>
                            </g>
                        </g>
                    </g>
                </g>
            </g>
        </g>
    </g>
</svg>