<?xml version="1.0" encoding="UTF-8" standalone="no"?>
<svg width="95px" height="95px" viewBox="0 0 95 95" version="1.1" xmlns="http://www.w3.org/2000/svg" xmlns:xlink="http://www.w3.org/1999/xlink" xmlns:sketch="http://www.bohemiancoding.com/sketch/ns">
    <!-- Generator: Sketch 3.5.2 (25235) - http://www.bohemiancoding.com/sketch -->
    <title>flaticon1454825494-svg</title>
    <desc>Created with Sketch.</desc>
    <defs></defs>
    <g id="Page-1" stroke="none" stroke-width="1" fill="none" fill-rule="evenodd" sketch:type="MSPage">
        <g id="Desktop-HD" sketch:type="MSArtboardGroup" transform="translate(-493.000000, -2454.000000)" fill="#FE9248">
            <g id="Group-6" sketch:type="MSLayerGroup" transform="translate(-81.000000, -1.000000)">
                <g id="Rectangle-3-Copy-+-flaticon1454825494-svg" transform="translate(441.000000, 2049.000000)" sketch:type="MSShapeGroup">
                    <g id="flaticon1454825494-svg" transform="translate(133.000000, 406.000000)">
                        <g id="Group">
                            <path d="M73.0769231,25.5769231 C71.0636538,25.5769231 69.4230769,23.9363462 69.4230769,21.9230769 L69.4230769,14.6153846 C69.4230769,12.6021154 71.0636538,10.9615385 73.0769231,10.9615385 L80.3846154,10.9615385 C82.3978846,10.9615385 84.0384615,12.6021154 84.0384615,14.6153846 L84.0384615,21.9230769 C84.0384615,23.9363462 82.3978846,25.5769231 80.3846154,25.5769231 L73.0769231,25.5769231 L73.0769231,25.5769231 Z" id="Shape"></path>
                            <path d="M47.5,33.5715385 C44.8473077,33.5715385 42.3992308,34.3498077 40.2909615,35.6286538 C40.9486538,35.4240385 41.6319231,35.2888462 42.3517308,35.2888462 C46.2540385,35.2888462 49.4146154,38.4494231 49.4146154,42.3553846 C49.4146154,46.2503846 46.2540385,49.4182692 42.3517308,49.4182692 C38.4494231,49.4182692 35.2888462,46.2540385 35.2888462,42.3553846 C35.2888462,41.6282692 35.4313462,40.945 35.6323077,40.2909615 C34.3461538,42.3992308 33.5715385,44.8473077 33.5715385,47.5 C33.5715385,55.1986538 39.8013462,61.4321154 47.5036538,61.4321154 C55.195,61.4321154 61.4357692,55.2023077 61.4357692,47.5 C61.4357692,39.7976923 55.1913462,33.5715385 47.5,33.5715385 L47.5,33.5715385 Z" id="Shape"></path>
                            <path d="M47.5,25.5769231 C59.6051923,25.5769231 69.4230769,35.3911538 69.4230769,47.5 C69.4230769,59.6088462 59.6015385,69.4230769 47.5,69.4230769 C35.3948077,69.4230769 25.5769231,59.6088462 25.5769231,47.5 C25.5769231,35.3911538 35.3948077,25.5769231 47.5,25.5769231 L47.5,25.5769231 Z M47.5,18.2692308 C31.3828846,18.2692308 18.2692308,31.3828846 18.2692308,47.5 C18.2692308,63.6171154 31.3828846,76.7307692 47.5,76.7307692 C63.6171154,76.7307692 76.7307692,63.6171154 76.7307692,47.5 C76.7307692,31.3828846 63.6171154,18.2692308 47.5,18.2692308 L47.5,18.2692308 L47.5,18.2692308 Z" id="Shape"></path>
                            <path d="M77.1875,0 L17.8125,0 C7.97269231,0 0,7.97269231 0,17.8125 L0,77.1875 C0,87.0273077 7.97269231,95 17.8125,95 L77.1875,95 C87.0273077,95 95,87.0273077 95,77.1875 L95,17.8125 C95,7.97269231 87.0273077,0 77.1875,0 L77.1875,0 Z M87.6923077,32.8846154 L63.8071154,32.8846154 C67.2892308,36.7686538 69.4230769,41.8767308 69.4230769,47.5 C69.4230769,59.6088462 59.6015385,69.4230769 47.5,69.4230769 C35.3948077,69.4230769 25.5769231,59.6088462 25.5769231,47.5 C25.5769231,41.8767308 27.7107692,36.765 31.1928846,32.8846154 L7.30769231,32.8846154 L7.30769231,17.8125 C7.30769231,12.0211538 12.0211538,7.30769231 17.8125,7.30769231 L77.1875,7.30769231 C82.9825,7.30769231 87.6923077,12.0211538 87.6923077,17.8125 L87.6923077,32.8846154 L87.6923077,32.8846154 Z" id="Shape"></path>
                        </g>
                    </g>
                </g>
            </g>
        </g>
    </g>
</svg>