<?xml version="1.0" encoding="utf-8"?>
<!-- Generator: Adobe Illustrator 16.0.0, SVG Export Plug-In . SVG Version: 6.00 Build 0)  -->
<!DOCTYPE svg PUBLIC "-//W3C//DTD SVG 1.1//EN" "http://www.w3.org/Graphics/SVG/1.1/DTD/svg11.dtd">
<svg version="1.1" id="Layer_1" xmlns="http://www.w3.org/2000/svg" xmlns:xlink="http://www.w3.org/1999/xlink" x="0px" y="0px"
	 width="373.309px" height="92px" viewBox="0 0 373.309 92" enable-background="new 0 0 373.309 92" xml:space="preserve">
<rect x="0.838" y="34.643" fill="none" width="338.381" height="60.906"/>
<g>
	<path fill="#33448D" d="M10.598,51.112c0,3.945-0.091,7.372-0.274,10.279c-0.183,2.907-0.448,5.378-0.793,7.411
		c-0.346,2.034-0.762,3.69-1.25,4.972c-0.488,1.281-1.017,2.277-1.586,2.989c-0.57,0.711-1.169,1.189-1.799,1.433
		c-0.631,0.244-1.271,0.366-1.922,0.366c-0.244,0-0.468-0.01-0.671-0.03c-0.204-0.021-0.407-0.052-0.61-0.092
		c-0.204-0.041-0.387-0.102-0.549-0.183l-0.915-4.575c0.163,0.082,0.346,0.144,0.549,0.184c0.203,0.041,0.406,0.071,0.61,0.091
		c0.203,0.021,0.427,0.03,0.671,0.03c1.057,0,2.033-0.264,2.928-0.793c0.894-0.527,1.667-1.595,2.318-3.202
		c0.65-1.605,1.159-3.913,1.525-6.924c0.366-3.009,0.549-6.993,0.549-11.956v-14.64l-3.965-1.22v-0.61h25.315v0.61l-3.66,0.915
		v39.649l3.66,0.915v0.61H18.223v-0.61l3.66-0.915V35.862H10.598V51.112z"/>
	<path fill="#33448D" d="M60.618,48.368c1.504,0,2.958,0.335,4.361,1.006c1.403,0.671,2.643,1.647,3.721,2.929
		c1.077,1.28,1.931,2.847,2.562,4.696c0.63,1.852,0.945,3.956,0.945,6.313c0,2.359-0.315,4.464-0.945,6.313
		c-0.631,1.852-1.485,3.416-2.562,4.697c-1.078,1.281-2.318,2.257-3.721,2.928c-1.403,0.671-2.857,1.007-4.361,1.007
		c-1.546,0-3.01-0.336-4.392-1.007c-1.383-0.671-2.613-1.636-3.69-2.897c-1.078-1.26-1.932-2.795-2.562-4.605
		c-0.631-1.809-0.945-3.853-0.945-6.13h-4.88v12.199l3.66,0.915v0.61h-12.2v-0.61l3.66-0.915v-25.01l-3.66-0.915v-0.609h12.2v0.609
		l-3.66,0.915v11.59h4.88c0.081-2.195,0.458-4.168,1.128-5.917c0.671-1.748,1.535-3.223,2.592-4.422
		c1.057-1.199,2.267-2.114,3.629-2.745C57.74,48.684,59.154,48.368,60.618,48.368z M60.618,49.283c-0.692,0-1.394,0.234-2.104,0.701
		c-0.712,0.468-1.363,1.241-1.952,2.318c-0.59,1.077-1.078,2.511-1.464,4.3c-0.387,1.79-0.58,4.026-0.58,6.71
		c0,2.685,0.192,4.921,0.58,6.71c0.386,1.79,0.874,3.224,1.464,4.301c0.589,1.078,1.24,1.851,1.952,2.318
		c0.711,0.468,1.413,0.701,2.104,0.701c0.691,0,1.393-0.233,2.104-0.701c0.711-0.468,1.362-1.24,1.952-2.318
		c0.589-1.077,1.077-2.511,1.464-4.301c0.386-1.789,0.58-4.025,0.58-6.71c0-2.684-0.193-4.92-0.58-6.71
		c-0.387-1.789-0.875-3.223-1.464-4.3c-0.59-1.077-1.241-1.851-1.952-2.318C62.01,49.518,61.309,49.283,60.618,49.283z"/>
	<path fill="#33448D" d="M89.287,50.198c1.504,0,2.958,0.335,4.361,1.006c1.403,0.671,2.643,1.616,3.721,2.837
		c1.077,1.22,1.931,2.694,2.562,4.422c0.63,1.729,0.945,3.65,0.945,5.765c0,2.156-0.315,4.098-0.945,5.826
		c-0.631,1.729-1.485,3.202-2.562,4.422c-1.078,1.22-2.318,2.156-3.721,2.807c-1.403,0.649-2.857,0.976-4.361,0.976
		c-1.546,0-3.01-0.336-4.392-1.007c-1.383-0.671-2.613-1.636-3.69-2.897c-1.078-1.26-1.932-2.795-2.562-4.605
		c-0.631-1.809-0.945-3.853-0.945-6.13v-5.186c0-3.538,0.467-6.425,1.403-8.662c0.935-2.235,2.114-4.046,3.538-5.429
		c1.423-1.382,2.989-2.46,4.697-3.233c1.708-0.771,3.355-1.494,4.941-2.165c1.586-0.671,2.999-1.403,4.239-2.196
		c1.24-0.793,2.083-1.9,2.532-3.324h0.915c0,1.912-0.285,3.498-0.854,4.758c-0.57,1.261-1.322,2.318-2.257,3.172
		c-0.936,0.854-1.993,1.566-3.172,2.135c-1.18,0.57-2.39,1.109-3.629,1.617c-1.241,0.509-2.451,1.058-3.63,1.646
		c-1.18,0.59-2.237,1.322-3.172,2.196c-0.936,0.875-1.688,1.973-2.257,3.294c-0.57,1.322-0.854,2.979-0.854,4.972
		c0.61-1.26,1.342-2.419,2.196-3.478c0.732-0.894,1.667-1.708,2.806-2.439C86.277,50.563,87.66,50.198,89.287,50.198z
		 M83.187,64.228c0,2.44,0.193,4.494,0.58,6.161c0.386,1.668,0.874,3.02,1.464,4.057c0.589,1.037,1.24,1.779,1.952,2.227
		c0.711,0.448,1.413,0.671,2.104,0.671c0.691,0,1.393-0.223,2.104-0.671c0.711-0.447,1.362-1.189,1.952-2.227
		c0.589-1.037,1.077-2.389,1.464-4.057c0.386-1.667,0.58-3.721,0.58-6.161c0-2.357-0.193-4.351-0.58-5.978
		c-0.387-1.626-0.875-2.948-1.464-3.965c-0.59-1.017-1.241-1.748-1.952-2.196c-0.712-0.447-1.414-0.671-2.104-0.671
		c-0.692,0-1.394,0.224-2.104,0.671c-0.712,0.448-1.363,1.18-1.952,2.196c-0.59,1.017-1.078,2.339-1.464,3.965
		C83.38,59.877,83.187,61.87,83.187,64.228z"/>
	<path fill="#33448D" d="M117.347,48.368c1.504,0,2.958,0.335,4.361,1.006c1.403,0.671,2.643,1.647,3.721,2.929
		c1.077,1.28,1.931,2.847,2.562,4.696c0.63,1.852,0.945,3.956,0.945,6.313c0,2.359-0.315,4.464-0.945,6.313
		c-0.631,1.852-1.485,3.416-2.562,4.697c-1.078,1.281-2.318,2.257-3.721,2.928c-1.403,0.671-2.857,1.007-4.361,1.007
		c-1.546,0-3.01-0.336-4.392-1.007c-1.383-0.671-2.613-1.646-3.69-2.928c-1.078-1.281-1.932-2.846-2.562-4.697
		c-0.631-1.85-0.945-3.954-0.945-6.313c0-2.357,0.314-4.462,0.945-6.313c0.63-1.85,1.484-3.416,2.562-4.696
		c1.077-1.281,2.308-2.258,3.69-2.929C114.337,48.703,115.801,48.368,117.347,48.368z M117.347,49.283
		c-0.692,0-1.394,0.234-2.104,0.701c-0.712,0.468-1.363,1.241-1.952,2.318c-0.59,1.077-1.078,2.511-1.464,4.3
		c-0.387,1.79-0.58,4.026-0.58,6.71c0,2.685,0.193,4.921,0.58,6.71c0.386,1.79,0.874,3.224,1.464,4.301
		c0.589,1.078,1.24,1.851,1.952,2.318c0.711,0.468,1.413,0.701,2.104,0.701c0.691,0,1.393-0.233,2.104-0.701
		c0.711-0.468,1.362-1.24,1.952-2.318c0.589-1.077,1.077-2.511,1.464-4.301c0.386-1.789,0.58-4.025,0.58-6.71
		c0-2.684-0.193-4.92-0.58-6.71c-0.387-1.789-0.875-3.223-1.464-4.3c-0.59-1.077-1.241-1.851-1.952-2.318
		C118.739,49.518,118.038,49.283,117.347,49.283z"/>
	<path fill="#33448D" d="M153.031,58.433v2.44h-19.52v-2.44H153.031z"/>
	<path fill="#33448D" d="M157.91,77.343c0,1.992-0.366,3.802-1.098,5.429c-0.732,1.626-1.79,2.969-3.172,4.026h-0.61
		c0.04-0.57,0.081-1.18,0.122-1.83c0.04-0.529,0.081-1.119,0.122-1.769c0.04-0.651,0.061-1.281,0.061-1.892
		c0-0.691-0.021-1.342-0.061-1.952c-0.041-0.609-0.082-1.159-0.122-1.646c-0.041-0.569-0.082-1.099-0.122-1.586h4.27
		c0.976-1.221,1.83-2.948,2.562-5.186c0.65-1.911,1.25-4.462,1.799-7.655c0.549-3.192,0.824-7.248,0.824-12.17v-14.64l-3.965-1.22
		v-0.61h24.705v0.61l-3.66,0.915v39.955h4.88c-0.082,0.487-0.143,1.017-0.183,1.586c-0.041,0.487-0.071,1.037-0.091,1.646
		c-0.021,0.61-0.031,1.261-0.031,1.952c0,0.61,0.01,1.24,0.031,1.892c0.02,0.649,0.05,1.239,0.091,1.769
		c0.04,0.65,0.101,1.26,0.183,1.83h-0.61c-1.383-1.058-2.44-2.4-3.172-4.026c-0.732-1.627-1.098-3.437-1.098-5.429H157.91z
		 M163.705,51.112c0,4.922-0.254,8.978-0.762,12.17c-0.509,3.193-1.067,5.744-1.678,7.655c-0.732,2.237-1.546,3.965-2.44,5.186
		h15.555V35.862h-10.675V51.112z"/>
	<path fill="#33448D" d="M200.61,48.368c1.504,0,2.959,0.335,4.361,1.006c1.404,0.671,2.644,1.647,3.722,2.929
		c1.077,1.28,1.931,2.847,2.562,4.696c0.631,1.852,0.945,3.956,0.945,6.313c0,2.359-0.314,4.464-0.945,6.313
		c-0.631,1.852-1.484,3.416-2.562,4.697c-1.078,1.281-2.317,2.257-3.722,2.928c-1.402,0.671-2.857,1.007-4.361,1.007
		c-1.545,0-3.01-0.336-4.392-1.007c-1.383-0.671-2.613-1.646-3.69-2.928c-1.078-1.281-1.932-2.846-2.563-4.697
		c-0.631-1.85-0.945-3.954-0.945-6.313c0-2.357,0.314-4.462,0.945-6.313c0.631-1.85,1.484-3.416,2.563-4.696
		c1.077-1.281,2.308-2.258,3.69-2.929C197.6,48.703,199.065,48.368,200.61,48.368z M200.61,49.283c-0.691,0-1.393,0.234-2.104,0.701
		c-0.713,0.468-1.363,1.241-1.953,2.318s-1.077,2.511-1.463,4.3c-0.387,1.79-0.58,4.026-0.58,6.71c0,2.685,0.193,4.921,0.58,6.71
		c0.386,1.79,0.873,3.224,1.463,4.301c0.59,1.078,1.24,1.851,1.953,2.318c0.711,0.468,1.412,0.701,2.104,0.701
		s1.393-0.233,2.105-0.701c0.711-0.468,1.361-1.24,1.951-2.318c0.59-1.077,1.078-2.511,1.465-4.301
		c0.386-1.789,0.579-4.025,0.579-6.71c0-2.684-0.193-4.92-0.579-6.71c-0.387-1.789-0.875-3.223-1.465-4.3s-1.24-1.851-1.951-2.318
		C202.002,49.518,201.301,49.283,200.61,49.283z"/>
	<path fill="#33448D" d="M220.129,50.808l-3.66-0.915v-0.609h8.54v3.659c0.406-0.813,0.955-1.564,1.647-2.257
		c0.568-0.568,1.301-1.098,2.195-1.586s1.952-0.731,3.172-0.731c1.301,0,2.593,0.335,3.874,1.006
		c1.28,0.671,2.419,1.647,3.416,2.929c0.996,1.28,1.81,2.847,2.44,4.696c0.629,1.852,0.945,3.956,0.945,6.313
		c0,2.359-0.316,4.464-0.945,6.313c-0.631,1.852-1.475,3.416-2.532,4.697s-2.257,2.257-3.599,2.928s-2.745,1.007-4.209,1.007
		c-1.18,0-2.166-0.152-2.959-0.458c-0.793-0.305-1.454-0.66-1.982-1.067c-0.609-0.446-1.098-0.955-1.464-1.524v15.25l3.66,0.915
		v0.609h-12.2v-0.609l3.66-0.915V50.808z M230.5,77.038c0.854,0,1.677-0.224,2.47-0.671s1.504-1.21,2.136-2.288
		c0.63-1.077,1.138-2.49,1.524-4.239c0.387-1.748,0.58-3.924,0.58-6.527c0-2.602-0.193-4.777-0.58-6.526
		c-0.387-1.748-0.875-3.151-1.463-4.209c-0.591-1.058-1.242-1.82-1.953-2.288c-0.711-0.467-1.413-0.701-2.104-0.701
		c-1.018,0-1.892,0.285-2.623,0.854c-0.732,0.57-1.363,1.2-1.892,1.892c-0.61,0.813-1.139,1.729-1.586,2.745v18.3
		c0.366,0.691,0.813,1.302,1.343,1.83c0.446,0.447,1.016,0.864,1.707,1.25C228.75,76.846,229.563,77.038,230.5,77.038z"/>
	<path fill="#33448D" d="M259.78,48.368c1.504,0,2.958,0.335,4.361,1.006c1.402,0.671,2.643,1.647,3.721,2.929
		c1.077,1.28,1.932,2.847,2.563,4.696c0.629,1.852,0.945,3.956,0.945,6.313c0,2.359-0.316,4.464-0.945,6.313
		c-0.631,1.852-1.485,3.416-2.563,4.697c-1.078,1.281-2.318,2.257-3.721,2.928c-1.403,0.671-2.857,1.007-4.361,1.007
		c-1.547,0-3.01-0.336-4.393-1.007s-2.613-1.646-3.69-2.928c-1.078-1.281-1.933-2.846-2.562-4.697
		c-0.631-1.85-0.945-3.954-0.945-6.313c0-2.357,0.314-4.462,0.945-6.313c0.629-1.85,1.483-3.416,2.562-4.696
		c1.077-1.281,2.308-2.258,3.69-2.929S258.233,48.368,259.78,48.368z M259.78,49.283c-0.692,0-1.395,0.234-2.105,0.701
		c-0.711,0.468-1.362,1.241-1.951,2.318c-0.59,1.077-1.078,2.511-1.465,4.3c-0.387,1.79-0.579,4.026-0.579,6.71
		c0,2.685,0.192,4.921,0.579,6.71c0.387,1.79,0.875,3.224,1.465,4.301c0.589,1.078,1.24,1.851,1.951,2.318s1.413,0.701,2.105,0.701
		c0.69,0,1.393-0.233,2.104-0.701s1.363-1.24,1.953-2.318c0.588-1.077,1.076-2.511,1.463-4.301c0.387-1.789,0.58-4.025,0.58-6.71
		c0-2.684-0.193-4.92-0.58-6.71c-0.387-1.789-0.875-3.223-1.463-4.3c-0.59-1.077-1.242-1.851-1.953-2.318
		C261.172,49.518,260.47,49.283,259.78,49.283z"/>
	<path fill="#33448D" d="M284.788,50.503v25.314l3.66,0.915v0.61h-12.199v-0.61l3.66-0.915v-25.01l-3.66-0.915v-0.609h20.74
		c-0.082,0.406-0.144,0.834-0.184,1.28c-0.041,0.407-0.071,0.885-0.092,1.434s-0.03,1.17-0.03,1.86c0,0.448,0.01,0.946,0.03,1.495
		s0.051,1.047,0.092,1.494c0.04,0.529,0.102,1.058,0.184,1.586h-0.61c-1.058-0.935-1.933-2.063-2.623-3.386
		c-0.692-1.32-1.037-2.836-1.037-4.544H284.788z"/>
	<path fill="#33448D" d="M312.239,48.368c1.504,0,2.959,0.335,4.361,1.006s2.643,1.647,3.721,2.929
		c1.076,1.28,1.932,2.847,2.563,4.696c0.629,1.852,0.945,3.956,0.945,6.313c0,2.359-0.316,4.464-0.945,6.313
		c-0.631,1.852-1.486,3.416-2.563,4.697c-1.078,1.281-2.318,2.257-3.721,2.928s-2.857,1.007-4.361,1.007
		c-1.547,0-3.01-0.336-4.393-1.007s-2.613-1.646-3.689-2.928c-1.078-1.281-1.934-2.846-2.563-4.697
		c-0.631-1.85-0.945-3.954-0.945-6.313c0-2.357,0.314-4.462,0.945-6.313c0.629-1.85,1.484-3.416,2.563-4.696
		c1.076-1.281,2.307-2.258,3.689-2.929S310.692,48.368,312.239,48.368z M312.239,49.283c-0.693,0-1.395,0.234-2.105,0.701
		c-0.711,0.468-1.363,1.241-1.951,2.318c-0.59,1.077-1.078,2.511-1.465,4.3c-0.387,1.79-0.578,4.026-0.578,6.71
		c0,2.685,0.191,4.921,0.578,6.71c0.387,1.79,0.875,3.224,1.465,4.301c0.588,1.078,1.24,1.851,1.951,2.318s1.412,0.701,2.105,0.701
		c0.691,0,1.393-0.233,2.104-0.701s1.363-1.24,1.953-2.318c0.588-1.077,1.076-2.511,1.463-4.301c0.387-1.789,0.58-4.025,0.58-6.71
		c0-2.684-0.193-4.92-0.58-6.71c-0.387-1.789-0.875-3.223-1.463-4.3c-0.59-1.077-1.242-1.851-1.953-2.318
		C313.631,49.518,312.93,49.283,312.239,49.283z"/>
</g>
<g>
	<path fill="#33448D" d="M308.139,36.313c-1.338-0.326-2.828-0.382-3.984-1.027c-4.881-2.727-7.336-8.42-6.385-14.421
    c0.457-2.892,0.998-5.757,3.275-7.925c0.238-0.229,0.189-0.817,0.182-1.238c-0.027-1.748,0.697-3.133,2.111-4.081
    c2.551-1.71,3.254-4.403,1.734-6.992c4.168-0.604,8.973,3.558,9.35,8.095c5.467,2.166,6.629,4.278,5.695,9.93
    c1.078,0.93,2.227,1.599,2.912,2.586c1.076,1.547,0.842,3.281-0.207,4.824c-0.539,0.791-0.455,1.354,0.098,2.129
    c1.406,1.965,1.322,3.705-0.375,5.416c-2.723,2.748-5.92,4.452-9.973,3.838c0.002,0.001-0.025,0.066-0.025,0.066
    c3.031-0.453,5.426-1.977,7.23-4.414c1.152-1.551,1.766-3.37,0.781-5.109c-0.57-1.01-0.523-1.669-0.16-2.635
    c0.82-2.184-0.02-4.379-2.117-5.312c-1-0.446-1.033-1.063-0.947-1.894c0.313-3.003-0.299-4.287-2.947-5.466
    c-1.248-0.556-1.961-1.202-2.252-2.634c-0.424-2.08-2.588-2.757-4.039-1.434c-1.121,1.021-2.254,2.043-3.281,3.156
    c-0.482,0.52-0.744,1.248-1.076,1.896c-0.174,0.342-0.188,0.815-0.441,1.055c-3.379,3.217-4.432,7.197-3.848,11.697
    c0.68,5.246,3.525,8.63,8.717,9.936L308.139,36.313z"/>
  <path fill="#33448D" d="M309.553,35.609c-2.354-3.477-4.854-9.436-4.357-15.136c0.188,0.233,0.301,0.312,0.316,0.406
    c0.039,0.222,0.039,0.452,0.051,0.679c0.188,4.782,1.805,7.807,4.592,12.912c0.504,0.761,2.447,4.008,2.689,4.375
    c0.834,1.266,1.77,2.464,2.445,3.845c-0.955-1.183-2-2.306-2.848-3.562C311.59,37.864,310.737,37.252,309.553,35.609z"/>
  <path fill="#33448D" d="M341.456,26.459c4.971-8.359,10.338-16.414,18.58-21.871c2.227-1.471,4.938-2.307,7.537-3.064
    c1.125-0.328,2.641,0.018,3.773,0.515c2.424,1.06,2.65,3.867,0.416,5.311c-1.26,0.813-2.807,1.223-4.27,1.66
    c-1.307,0.393-2.666,0.65-4.021,0.84c-6.336,0.887-10.91,4.648-15.068,9.118C346.084,21.462,343.772,23.961,341.456,26.459z"/>
  <path fill="#33448D" d="M342.819,26.143c4.197-3.308,8.463-6.752,14.186-7.483c1.754-0.224,3.549-0.109,4.785,1.241
    c0.627,0.684,1.072,1.971,0.873,2.809c-0.121,0.505-1.648,0.934-2.539,0.924c-1.107-0.01-2.219-0.484-3.318-0.796
    c-2.563-0.726-5.045-0.657-7.504,0.507C347.143,24.364,344.917,25.243,342.819,26.143z"/>
  <path fill="#33448D" d="M331.958,39.242c-0.125-1.002-0.17-2.023-0.389-3.004c-0.473-2.09-1.156-4.138-1.51-6.244
    c-0.213-1.269-0.279-2.729,0.148-3.895c0.557-1.509,2.303-1.633,3.066-0.221c0.752,1.397,1.283,3.063,1.369,4.64
    C334.821,33.641,333.79,36.55,331.958,39.242z"/>
  <path fill="#33448D" d="M339.348,32.015c3.176-2.933,6.543-5.608,11.041-5.929c1.174-0.084,2.48,0.609,3.588,1.204
    c0.383,0.207,0.633,1.329,0.418,1.791c-0.205,0.45-1.064,0.651-1.676,0.84c-0.289,0.089-0.689-0.048-0.996-0.183
    c-4.363-1.899-8.123-0.227-11.801,1.969C339.739,31.818,339.542,31.912,339.348,32.015z"/>
  <path fill="#33448D" d="M328.983,42.051c-1.068-1.918-2.152-3.829-3.193-5.762c-0.232-0.437-0.516-0.996-0.428-1.426
    c0.15-0.725,0.584-1.391,0.896-2.08c0.672,0.318,1.613,0.464,1.959,0.996c0.629,0.97,1.162,2.145,1.268,3.274
    c0.156,1.685-0.092,3.406-0.168,5.11C329.206,42.127,329.094,42.088,328.983,42.051z"/>
  <path fill="#33448D" d="M337.569,36.535c1.973-2.101,4.041-4.008,7.063-4.275c0.582-0.052,1.295,0.106,1.77,0.428
    c0.389,0.267,0.742,0.958,0.674,1.391c-0.049,0.305-0.814,0.541-1.295,0.713c-0.24,0.086-0.566-0.001-0.84-0.072
    C342.163,33.992,339.813,34.98,337.569,36.535z"/>
  <path fill="#33448D" d="M338.262,26.359c-0.277-0.176-0.951-0.382-1.234-0.83c-0.561-0.887,0.096-2.609,1.096-2.814
    c0.492-0.102,1.326,0.228,1.615,0.637C340.352,24.221,339.672,25.774,338.262,26.359z"/>
  <path fill="#33448D" d="M326.881,45.527c-0.875-1.115-1.688-1.984-2.271-2.986c-0.242-0.414,0.008-1.118,0.035-1.691
    c0.541,0.102,1.273,0.017,1.594,0.34C327.377,42.348,327.446,43.785,326.881,45.527z"/>
  <path fill="#33448D" d="M340.834,18.153c0.76,0.481,1.451,0.784,1.422,0.927c-0.145,0.652-0.467,1.271-0.807,1.856
    c-0.023,0.04-1.006-0.29-1.01-0.459C340.426,19.842,340.631,19.199,340.834,18.153z"/>
  <path fill="#33448D" d="M345.641,15.008c-0.518,0.853-0.787,1.431-1.197,1.872c-0.098,0.103-1.02-0.35-1.004-0.399
    c0.152-0.591,0.35-1.201,0.693-1.693C344.229,14.649,344.852,14.881,345.641,15.008z"/>
  <path fill="#33448D" d="M334.19,45.545c0.182-0.643,0.23-1.361,0.561-1.912c1.396-2.318,4.189-3.414,7.08-2.861
    c1.391,0.268,2.768,0.576,3.781,1.711c0.105,0.119,0.393,0.105,0.596,0.107c0.846,0.016,1.506,0.387,1.943,1.088
    c0.783,1.262,2.076,1.643,3.354,0.949c0.229,2.025-1.865,4.286-4.063,4.395c-1.137,2.613-2.178,3.142-4.895,2.599
    c-0.469,0.508-0.813,1.055-1.301,1.371c-0.766,0.493-1.6,0.353-2.33-0.179c-0.375-0.271-0.646-0.242-1.031,0.016
    c-0.975,0.646-1.813,0.579-2.611-0.27c-1.289-1.36-2.063-2.936-1.701-4.885l-0.033-0.016c0.172,1.476,0.871,2.656,2.023,3.568
    c0.732,0.582,1.604,0.907,2.455,0.461c0.5-0.263,0.818-0.229,1.279-0.037c1.043,0.433,2.119,0.062,2.604-0.939
    c0.23-0.477,0.531-0.482,0.934-0.43c1.447,0.199,2.078-0.078,2.689-1.338c0.291-0.596,0.613-0.93,1.309-1.049
    c1.014-0.17,1.375-1.207,0.762-1.933c-0.479-0.559-0.955-1.123-1.477-1.639c-0.244-0.24-0.592-0.379-0.9-0.551
    c-0.162-0.09-0.393-0.102-0.506-0.229c-1.5-1.687-3.41-2.258-5.598-2.047c-2.547,0.246-4.23,1.568-4.943,4.059L334.19,45.545z"/>
  <path fill="#33448D" d="M334.508,46.242c1.719-1.086,4.643-2.2,7.393-1.87c-0.117,0.085-0.154,0.138-0.201,0.147
    c-0.109,0.015-0.221,0.012-0.328,0.012c-2.318,0.016-3.809,0.75-6.322,2.02c-0.375,0.23-1.979,1.119-2.162,1.232
    c-0.621,0.383-1.217,0.814-1.895,1.121c0.586-0.443,1.145-0.932,1.768-1.322C333.383,47.189,333.694,46.787,334.508,46.242z"/>
</g>
<g>
	<path d="M76.836,19.543h-4.934v-8.566h4.934v1.488h-3.117v1.881h2.9v1.488h-2.9v2.209h3.117V19.543z"/>
	<path d="M92.862,10.977h1.834l-2.912,8.566h-1.98l-2.906-8.566h1.834l1.611,5.098c0.09,0.301,0.183,0.651,0.278,1.052
		s0.155,0.679,0.179,0.835c0.043-0.359,0.189-0.988,0.439-1.887L92.862,10.977z"/>
	<path d="M110.059,19.543h-4.934v-8.566h4.934v1.488h-3.117v1.881h2.9v1.488h-2.9v2.209h3.117V19.543z"/>
	<path d="M128.797,19.543h-2.309l-3.727-6.48h-0.053c0.074,1.145,0.111,1.961,0.111,2.449v4.031h-1.623v-8.566h2.291l3.721,6.416
		h0.041c-0.059-1.113-0.088-1.9-0.088-2.361v-4.055h1.635V19.543z"/>
	<path d="M143.61,19.543h-1.816v-7.055h-2.326v-1.512h6.469v1.512h-2.326V19.543z"/>
	<path d="M180.553,19.543l-0.621-2.039h-3.123l-0.621,2.039h-1.957l3.023-8.602h2.221l3.035,8.602H180.553z M179.499,15.98
		c-0.574-1.848-0.897-2.893-0.97-3.135s-0.124-0.434-0.155-0.574c-0.129,0.5-0.498,1.736-1.107,3.709H179.499z"/>
	<path d="M196.192,14.732h3.398v4.441c-0.551,0.18-1.069,0.306-1.556,0.378s-0.983,0.108-1.491,0.108c-1.293,0-2.28-0.38-2.962-1.14
		s-1.022-1.851-1.022-3.272c0-1.383,0.396-2.461,1.187-3.234s1.888-1.16,3.29-1.16c0.879,0,1.727,0.176,2.543,0.527l-0.604,1.453
		c-0.625-0.313-1.275-0.469-1.951-0.469c-0.785,0-1.414,0.264-1.887,0.791s-0.709,1.236-0.709,2.127c0,0.93,0.19,1.64,0.571,2.13
		s0.935,0.735,1.661,0.735c0.379,0,0.764-0.039,1.154-0.117v-1.787h-1.623V14.732z"/>
	<path d="M215.915,19.543h-4.934v-8.566h4.934v1.488h-3.117v1.881h2.9v1.488h-2.9v2.209h3.117V19.543z"/>
	<path d="M234.653,19.543h-2.309l-3.727-6.48h-0.053c0.074,1.145,0.111,1.961,0.111,2.449v4.031h-1.623v-8.566h2.291l3.721,6.416
		h0.041c-0.059-1.113-0.088-1.9-0.088-2.361v-4.055h1.635V19.543z"/>
	<path d="M249.799,12.365c-0.684,0-1.213,0.257-1.588,0.771s-0.563,1.229-0.563,2.147c0,1.91,0.717,2.865,2.15,2.865
		c0.602,0,1.33-0.15,2.186-0.451v1.523c-0.703,0.293-1.488,0.439-2.355,0.439c-1.246,0-2.199-0.378-2.859-1.134
		s-0.99-1.841-0.99-3.255c0-0.891,0.162-1.671,0.486-2.341s0.79-1.184,1.397-1.541s1.319-0.536,2.136-0.536
		c0.832,0,1.668,0.201,2.508,0.604l-0.586,1.477c-0.32-0.152-0.643-0.285-0.967-0.398S250.112,12.365,249.799,12.365z"/>
	<path d="M265.825,14.504l1.787-3.527h1.957l-2.842,5.232v3.334h-1.805v-3.275l-2.842-5.291h1.969L265.825,14.504z"/>
</g>
</svg>
