<?xml version="1.0" encoding="UTF-8" standalone="no"?>
<svg width="39px" height="56px" viewBox="0 0 39 56" version="1.1" xmlns="http://www.w3.org/2000/svg" xmlns:xlink="http://www.w3.org/1999/xlink" xmlns:sketch="http://www.bohemiancoding.com/sketch/ns">
    <!-- Generator: Sketch 3.5.2 (25235) - http://www.bohemiancoding.com/sketch -->
    <title>flaticon1454829687-svg copy 2</title>
    <desc>Created with Sketch.</desc>
    <defs></defs>
    <g id="Page-1" stroke="none" stroke-width="1" fill="none" fill-rule="evenodd" sketch:type="MSPage">
        <g id="Desktop-HD" sketch:type="MSArtboardGroup" transform="translate(-700.000000, -818.000000)" fill="#777777">
            <g id="flaticon1454829687-svg-copy-2" sketch:type="MSLayerGroup" transform="translate(700.000000, 818.000000)">
                <g id="Group" sketch:type="MSShapeGroup">
                    <path d="M24.0017143,0 C23.2328571,0 22.6088571,0.621439024 22.6088571,1.3902439 C22.6088571,2.15904878 23.2328571,2.7804878 24.0017143,2.7804878 C30.3378214,2.7804878 35.4927857,7.92578049 35.4927857,14.25 L35.4927857,37.0513902 C35.4927857,45.8196585 28.3460357,52.953 19.5612857,52.953 C10.7765357,52.953 3.62978571,45.8196585 3.62978571,37.0513902 L3.62978571,14.25 C3.62978571,7.92578049 8.78475,2.7804878 15.1208571,2.7804878 L18.1684286,2.7804878 L18.1684286,12.2800244 C18.1684286,13.0488293 18.7924286,13.6702683 19.5612857,13.6702683 C20.3301429,13.6702683 20.9541429,13.0488293 20.9541429,12.2800244 L20.9541429,1.3902439 C20.9541429,0.621439024 20.3301429,0 19.5612857,0 L15.1208571,0 C7.24842857,0 0.844071429,6.39234146 0.844071429,14.25 L0.844071429,37.0513902 C0.844071429,47.3517073 9.24021429,55.7334878 19.5612857,55.7334878 C29.8823571,55.7334878 38.2771071,47.3530976 38.2771071,37.0513902 L38.2771071,14.25 C38.2785,6.39234146 31.8741429,0 24.0017143,0 L24.0017143,0 Z" id="Shape"></path>
                    <path d="M19.5612857,16.8567073 C18.7924286,16.8567073 18.1684286,17.4781463 18.1684286,18.2469512 L18.1684286,23.9817073 C18.1684286,24.7505122 18.7924286,25.3719512 19.5612857,25.3719512 C20.3301429,25.3719512 20.9541429,24.7505122 20.9541429,23.9817073 L20.9541429,18.2469512 C20.9541429,17.4781463 20.3315357,16.8567073 19.5612857,16.8567073 L19.5612857,16.8567073 Z" id="Shape"></path>
                </g>
            </g>
        </g>
    </g>
</svg>