<?xml version="1.0" encoding="UTF-8" standalone="no"?>
<svg width="95px" height="95px" viewBox="0 0 95 95" version="1.1" xmlns="http://www.w3.org/2000/svg" xmlns:xlink="http://www.w3.org/1999/xlink" xmlns:sketch="http://www.bohemiancoding.com/sketch/ns">
    <!-- Generator: Sketch 3.5.2 (25235) - http://www.bohemiancoding.com/sketch -->
    <title>flaticon1454825507-svg</title>
    <desc>Created with Sketch.</desc>
    <defs></defs>
    <g id="Page-1" stroke="none" stroke-width="1" fill="none" fill-rule="evenodd" sketch:type="MSPage">
        <g id="Desktop-HD" sketch:type="MSArtboardGroup" transform="translate(-853.000000, -2454.000000)" fill="#FA738D">
            <g id="Group-6" sketch:type="MSLayerGroup" transform="translate(-81.000000, -1.000000)">
                <g id="Rectangle-3-Copy-2-+-flaticon1454825507-svg" transform="translate(801.000000, 2049.000000)" sketch:type="MSShapeGroup">
                    <g id="flaticon1454825507-svg" transform="translate(133.000000, 406.000000)">
                        <path d="M52.6201042,52.356875 C51.0971354,51.4702083 48.9804167,51.4702083 47.2605208,51.4702083 L41.6129687,51.4702083 L41.6129687,63.1077083 L46.7964062,63.1077083 C48.7152083,63.1077083 51.1624479,63.2452604 52.8170312,62.0834896 C54.3360417,61.06125 55.1959896,59.054375 55.1959896,57.1434896 C55.1959896,55.3681771 54.1391146,53.2445313 52.6201042,52.356875 L52.6201042,52.356875 Z M50.4895312,42.4184896 C51.7463021,41.4615625 52.4053646,39.7555208 52.4053646,38.1840625 C52.4053646,36.4770313 51.6127083,34.8382813 50.1590104,33.9516146 C48.6380208,33.0649479 45.8582812,33.2697917 44.0730729,33.2697917 L41.6129687,33.2697917 L41.6129687,43.5119792 L44.8677083,43.5119792 C46.7192187,43.5109896 48.9032292,43.6475521 50.4895312,42.4184896 L50.4895312,42.4184896 Z M78.3007812,0 L16.6972396,0 C7.47630208,0 0,7.47630208 0,16.6992188 L0,78.3007812 C0,87.5217187 7.47630208,95 16.6972396,95 L78.3007812,95 C87.5217187,95 95,87.5217187 95,78.3007812 L95,16.6992188 C95,7.47630208 87.5217187,0 78.3007812,0 L78.3007812,0 Z M50.076875,71.7794271 L30.6691667,71.7794271 L30.6691667,24.9384896 L51.8739583,24.9384896 C58.0163021,24.9384896 63.6836458,28.8483333 63.6836458,35.7447396 C63.6836458,41.0696875 60.7109375,44.7163021 56.9188542,45.849375 L56.9188542,45.9869271 C62.5416667,47.1486979 66.5573958,50.2025521 66.5573958,57.57 C66.5573958,64.3882292 61.9142708,71.7794271 50.076875,71.7794271 L50.076875,71.7794271 Z" id="Shape"></path>
                    </g>
                </g>
            </g>
        </g>
    </g>
</svg>